classDiagram	class ForOfStatement {	}	class LabeledStatement {	}	class Parser {	}	class CatchClause {	}	class TryStatement {	}	class RegExpLiteral {	}	class NumericLiteral {	}	class ConditionalExpression {	}	class ReturnStatement {	}	class NullLiteral {	}	class IfStatement {	}	class TemplateElement {	}	class ObjectExpression {	}	class ThisExpression {	}	class ForStatement {	}	class StringLiteral {	}	class Program {	}	class SwitchCase {	}	class ExpressionStatement {	}	class ClassMethod {	}	class VariableDeclarator {	}	class NewExpression {	}	class BlockStatement {	}	class File {	}	class SwitchStatement {	}	class BooleanLiteral {	}	class ArrayExpression {	}	class Statement {	}	class TemplateLiteral {	}	class ObjectProperty {	}	class Identifier {	}	class ExportDefaultDeclaration {	}	class BreakStatement {	}	class DoWhileStatement {	}	class CommentLine {	}	class FunctionExpression {	}	class ClassDeclaration {	}	class VariableDeclaration {	}	class UpdateExpression {	}	class ClassBody {	}	class BinaryExpression {	}	class UnaryExpression {	}	class Declaration {	}	class FunctionDeclaration {	}	class MemberExpression {	}	class LogicalExpression {	}	class Node {	}	class Expression {	}	class AssignmentExpression {	}	class CallExpression {	}	class Literal {	}	class CommentBlock {	}	class UnknownNode {	}Statement <|-- ForOfStatementStatement <|-- LabeledStatementNode <|-- CatchClauseStatement <|-- TryStatementLiteral <|-- RegExpLiteralLiteral <|-- NumericLiteralExpression <|-- ConditionalExpressionStatement <|-- ReturnStatementLiteral <|-- NullLiteralStatement <|-- IfStatementLiteral <|-- TemplateElementExpression <|-- ObjectExpressionExpression <|-- ThisExpressionStatement <|-- ForStatementLiteral <|-- StringLiteralNode <|-- ProgramNode <|-- SwitchCaseStatement <|-- ExpressionStatementNode <|-- ClassMethodNode <|-- VariableDeclaratorCallExpression <|-- NewExpressionStatement <|-- BlockStatementNode <|-- FileStatement <|-- SwitchStatementLiteral <|-- BooleanLiteralExpression <|-- ArrayExpressionNode <|-- StatementLiteral <|-- TemplateLiteralNode <|-- ObjectPropertyNode <|-- IdentifierDeclaration <|-- ExportDefaultDeclarationStatement <|-- BreakStatementStatement <|-- DoWhileStatementNode <|-- CommentLineExpression <|-- FunctionExpressionDeclaration <|-- ClassDeclarationDeclaration <|-- VariableDeclarationExpression <|-- UpdateExpressionNode <|-- ClassBodyExpression <|-- BinaryExpressionExpression <|-- UnaryExpressionNode <|-- DeclarationDeclaration <|-- FunctionDeclarationExpression <|-- MemberExpressionExpression <|-- LogicalExpressionNode <|-- ExpressionExpression <|-- AssignmentExpressionExpression <|-- CallExpressionNode <|-- LiteralNode <|-- CommentBlockNode <|-- UnknownNode